# WaveFront *.obj file (generated by Autodesk ATF)

mtllib Holder.mtl

g Holder

v 92.917704 -154.680015 55.694586
v 92.917704 -91.000001 5.000000
v 94.829970 -89.532201 4.322703
v 96.452527 -87.630265 4.190746
v 97.536446 -85.391419 4.481998
v 97.917704 -82.972061 5.000000
v 97.917704 -148.144680 56.882824
v 97.533348 -150.190974 56.067653
v 96.451961 -152.056830 55.479138
v 94.829747 -153.587237 55.311998
v 94.830844 -120.146123 28.689068
v 96.453224 -119.471003 29.537120
v 97.537215 -118.460530 30.806425
v 92.917704 -153.122953 57.650489
v 92.917704 -89.442940 6.955904
v 64.929704 -89.442940 6.955904
v 64.929704 -153.122953 57.650489
v 64.929704 -154.680015 55.694586
v 95.417704 -148.144680 56.882824
v 95.227805 -149.594173 56.815134
v 94.686921 -150.953445 56.861162
v 93.875014 -152.147962 57.117873
v 96.100803 -148.144680 56.882824
v 97.119032 -149.510296 56.421942
v 94.155489 -153.037808 56.253224
v 94.544132 -152.693057 56.184468
v 95.782577 -151.179417 56.205551
v 96.223287 -150.315207 56.350991
v 96.519615 -149.402675 56.557129
v 96.773406 -150.498473 56.120781
v 96.259386 -151.430290 55.890417
v 94.814801 -153.043377 55.744414
v 94.361476 -153.404812 55.792212
v 93.873466 -88.097704 6.127723
v 94.684063 -86.533543 5.573911
v 95.227182 -84.798038 5.230101
v 95.417704 -82.972061 5.000000
v 96.100803 -82.972061 5.000000
v 96.459013 -84.790584 4.869932
v 96.296901 -85.389009 4.845178
v 95.883735 -86.461070 4.844928
v 95.341157 -87.470684 4.923120
v 94.691656 -88.401057 5.100851
v 93.964735 -89.242079 5.390821
v 64.929704 -91.000001 5.000000
v 94.167704 -135.765889 44.260933
v 94.167704 -118.617431 30.609334
v 94.167704 -101.468973 16.957736
v 95.082768 -135.195965 44.976843
v 95.082768 -118.047507 31.325245
v 95.082768 -100.899049 17.673647
v 97.917704 -79.373075 5.000000
v 97.917704 -103.014374 65.088301
v 95.417704 -79.373075 5.000000
v 96.100803 -79.373075 5.000000
v 92.917704 -74.000001 5.000000
v 92.917704 -98.000001 66.000001
v 94.029712 -98.168633 66.085249
v 95.086126 -98.563628 66.081437
v 96.034218 -99.170070 65.994432
v 96.826575 -99.958101 65.835983
v 97.634392 -101.400665 65.495809
v 97.536421 -77.413725 5.242393
v 96.452484 -75.724080 5.378672
v 94.829948 -74.537723 5.316936
v 94.831282 -86.535010 35.820089
v 96.453366 -87.543674 35.423238
v 97.537297 -89.053481 34.829215
v 92.917704 -76.326416 4.084689
v 92.917704 -100.326416 65.084690
v 42.261704 -100.326416 65.084690
v 42.261704 -76.326416 4.084689
v 42.261704 -74.000001 5.000000
v 95.227083 -78.301769 4.892277
v 94.683906 -77.366035 4.731369
v 93.873382 -76.682931 4.472226
v 97.144486 -78.204193 5.108853
v 93.731876 -75.347644 4.764435
v 94.507433 -75.694774 4.922514
v 95.030315 -76.044481 5.000947
v 95.977326 -77.072923 5.075128
v 96.541325 -78.353898 5.049952
v 96.486602 -76.737164 5.207230
v 95.381947 -75.564710 5.189709
v 94.772017 -75.169082 5.129344
v 93.867362 -74.780885 4.987422
v 93.875270 -100.594353 65.244953
v 94.687084 -101.190308 65.276049
v 95.227762 -102.034617 65.208787
v 95.417704 -103.014374 65.088301
v 96.100803 -103.014374 65.088301
v 96.577106 -102.205070 65.258571
v 96.311121 -101.431870 65.414635
v 96.015513 -100.910722 65.511713
v 95.083899 -99.946298 65.650423
v 93.880286 -99.339558 65.648405
v 42.261704 -98.000001 66.000001
v 94.167704 -84.758611 24.601702
v 94.167704 -92.879125 45.241342
v 95.082768 -85.610138 24.266675
v 95.082768 -93.730652 44.906315
vt 4.493092 0.589149 0.000000
vt 4.602415 0.785398 0.000000
vt 0.218647 0.589079 0.000000
vt -3.537047 0.785398 0.000000
vt -3.694066 0.589014 0.000000
vt 0.218647 0.392701 0.000000
vt -3.851085 0.392667 0.000000
vt 0.218647 0.196320 0.000000
vt -4.008104 0.196253 0.000000
vt -4.165122 -0.000000 0.000000
vt 4.165122 -0.000000 0.000000
vt 4.274446 0.196385 0.000000
vt 4.383769 0.392736 0.000000
vt 3.519918 -2.691260 0.000000
vt -1.549541 3.676742 0.000000
vt 1.330245 -4.434422 0.000000
vt -3.739214 1.933580 0.000000
vt -0.000000 0.000000 0.000000
vt 2.798800 -0.000000 0.000000
vt 0.000000 0.250000 0.000000
vt 2.798800 0.250000 0.000000
vt 0.000000 0.000000 0.000000
vt 0.183164 0.000196 0.000000
vt 0.000000 0.068279 0.000000
vt 0.131075 0.125059 0.000000
vt 0.131075 0.187473 0.000000
vt 0.229301 0.125059 0.000000
vt 0.229301 0.187473 0.000000
vt 0.327527 0.125059 0.000000
vt 0.327527 0.187473 0.000000
vt 0.523980 0.125059 0.000000
vt 0.523980 0.187473 0.000000
vt 0.576409 0.125059 0.000000
vt 0.576409 0.187473 0.000000
vt 0.733571 0.249887 0.000000
vt 0.550179 0.249887 0.000000
vt 0.366368 0.000072 0.000000
vt 0.549963 0.000058 0.000000
vt 0.733571 0.000000 0.000000
vt 0.366786 0.249887 0.000000
vt 0.183393 0.249887 0.000000
vt 0.000000 0.249887 0.000000
vt 0.000000 0.249896 0.000000
vt 0.000000 0.000000 0.000000
vt 0.155176 0.125059 0.000000
vt 0.214996 0.000192 0.000000
vt 0.270139 0.125059 0.000000
vt 0.430047 0.000066 0.000000
vt 0.385101 0.125059 0.000000
vt 0.500064 0.125059 0.000000
vt 0.430518 0.249896 0.000000
vt 0.645777 0.249896 0.000000
vt 0.615026 0.125059 0.000000
vt 0.677097 0.125059 0.000000
vt 0.645545 0.000055 0.000000
vt 0.861037 0.068282 0.000000
vt 0.861037 -0.000000 0.000000
vt 0.861037 0.249896 0.000000
vt 0.215259 0.249896 0.000000
vt 0.000000 -0.000000 0.000000
vt 2.798800 0.000000 0.000000
vt -0.000000 0.250000 0.000000
vt 2.798800 0.250000 0.000000
vt 0.000000 0.000000 0.000000
vt 8.139463 -0.000000 0.000000
vt 0.000000 0.250000 0.000000
vt 8.139463 0.250000 0.000000
vt 3.537047 0.392699 0.000000
vt -4.602415 0.392699 0.000000
vt 3.693874 0.294627 0.000000
vt 1.973238 0.261799 0.000000
vt 3.850741 0.196549 0.000000
vt 1.973238 0.130900 0.000000
vt 4.007934 0.098232 0.000000
vt 4.165122 -0.000000 0.000000
vt -0.218647 0.130900 0.000000
vt -2.410531 0.130900 0.000000
vt -2.410531 0.261799 0.000000
vt -4.383520 0.196144 0.000000
vt -4.492963 0.294459 0.000000
vt -0.218647 0.261799 0.000000
vt -4.274309 0.098070 0.000000
vt -4.165122 -0.000000 0.000000
vt -3.519918 -2.691260 0.000000
vt -1.330245 -4.434422 0.000000
vt 1.549541 3.676742 0.000000
vt 3.739214 1.933580 0.000000
vt -3.380467 2.138282 0.000000
vt 3.136795 -3.050000 0.000000
vt 1.132563 2.958830 0.000000
vt 3.496693 -3.050000 0.000000
vt 0.537307 0.000000 0.000000
vt 0.897206 0.000000 0.000000
vt 0.537307 0.181690 0.000000
vt 0.897206 0.181690 0.000000
vt 0.537307 0.250000 0.000000
vt 0.897206 0.250000 0.000000
vt 3.376130 0.589014 0.000000
vt 3.425310 0.785398 0.000000
vt 0.098361 0.589031 0.000000
vt -3.129840 0.785398 0.000000
vt -3.143947 0.673249 0.000000
vt -3.158054 0.561109 0.000000
vt -3.172161 0.448871 0.000000
vt 0.098361 0.392681 0.000000
vt -3.186268 0.336645 0.000000
vt 0.098361 0.196298 0.000000
vt -3.207429 0.168339 0.000000
vt 3.228589 -0.000000 0.000000
vt -3.228589 0.000000 0.000000
vt 3.277769 0.196249 0.000000
vt 3.326950 0.392663 0.000000
vt 2.186891 -3.285872 0.000000
vt 4.041530 1.428002 0.000000
vt -3.913109 -0.885872 0.000000
vt -2.058470 3.828003 0.000000
vt -0.000000 -0.000000 0.000000
vt 5.065600 -0.000000 0.000000
vt 0.000000 0.250000 0.000000
vt 5.065600 0.250000 0.000000
vt -0.000000 -0.000000 0.000000
vt 0.155454 0.000058 0.000000
vt -0.000000 0.068279 0.000000
vt 0.103114 0.125059 0.000000
vt 0.103114 0.187474 0.000000
vt 0.243761 0.125059 0.000000
vt 0.243761 0.187474 0.000000
vt 0.384408 0.125059 0.000000
vt 0.384408 0.187474 0.000000
vt 0.447863 0.125059 0.000000
vt 0.447863 0.187474 0.000000
vt 0.534415 0.125059 0.000000
vt 0.534415 0.187474 0.000000
vt 0.620968 0.249889 0.000000
vt 0.465726 0.249889 0.000000
vt 0.310862 0.000071 0.000000
vt 0.465930 0.000195 0.000000
vt 0.620968 -0.000000 0.000000
vt 0.310484 0.249889 0.000000
vt 0.155242 0.249889 0.000000
vt 0.000000 0.249889 0.000000
vt 0.000000 0.249886 0.000000
vt 0.000000 0.000000 0.000000
vt 0.098735 0.125059 0.000000
vt 0.149519 0.000058 0.000000
vt 0.234216 0.125059 0.000000
vt 0.298977 0.000073 0.000000
vt 0.369697 0.125059 0.000000
vt 0.448071 0.000196 0.000000
vt 0.430457 0.125059 0.000000
vt 0.513830 0.125059 0.000000
vt 0.469212 0.249886 0.000000
vt 0.597203 0.249886 0.000000
vt 0.597203 0.068279 0.000000
vt 0.597203 0.000000 0.000000
vt 0.341259 0.249886 0.000000
vt 0.255938 0.249886 0.000000
vt 0.170629 0.249886 0.000000
vt 0.085318 0.249886 0.000000
vt 0.000000 0.000000 0.000000
vt 5.065600 0.000000 0.000000
vt -0.000000 0.250000 0.000000
vt 5.065600 0.250000 0.000000
vt 0.000000 0.000000 0.000000
vt 6.555151 0.000000 0.000000
vt -0.000000 0.250000 0.000000
vt 6.555151 0.250000 0.000000
vt 3.129840 0.392699 0.000000
vt -3.425310 0.392699 0.000000
vt 3.154564 0.294432 0.000000
vt 1.010623 0.261799 0.000000
vt 3.179277 0.196121 0.000000
vt 1.010623 0.130900 0.000000
vt 3.203930 0.098081 0.000000
vt 3.228589 0.000000 0.000000
vt -1.207344 0.130900 0.000000
vt -3.277837 0.098258 0.000000
vt -3.327070 0.196571 0.000000
vt -1.207344 0.261799 0.000000
vt -3.376195 0.294636 0.000000
vt -3.228589 -0.000000 0.000000
vt -2.186891 -3.285872 0.000000
vt 3.913109 -0.885872 0.000000
vt -4.041530 1.428002 0.000000
vt 2.058470 3.828003 0.000000
vt 2.138282 -3.380467 0.000000
vt 2.958830 1.132563 0.000000
vt -3.050000 3.136795 0.000000
vt -3.050000 3.496693 0.000000
vt 5.251267 0.250000 0.000000
vt 0.664248 0.250000 0.000000
vt 5.251267 0.181690 0.000000
vt 0.664248 0.181690 0.000000
vt 5.251267 -0.000000 0.000000
vt 0.664248 -0.000000 0.000000
vn 0.038250 -0.057546 -0.072287
vn 0.000000 -0.062282 -0.078236
vn 0.038263 -0.057543 -0.072283
vn 0.000000 -0.062282 -0.078236
vn 0.038275 -0.057540 -0.072279
vn 0.070710 -0.044041 -0.055322
vn 0.070715 -0.044038 -0.055318
vn 0.092390 -0.023831 -0.029935
vn 0.092395 -0.023823 -0.029926
vn 0.100000 0.000000 0.000000
vn 0.100000 0.000000 0.000000
vn 0.092385 -0.023838 -0.029945
vn 0.070706 -0.044044 -0.055325
vn -0.000000 0.062282 0.078236
vn -0.000000 0.062282 0.078236
vn -0.000000 0.062282 0.078236
vn -0.000000 0.062282 0.078236
vn 0.000000 -0.078236 0.062282
vn 0.000000 -0.078236 0.062282
vn 0.000000 -0.078236 0.062282
vn 0.000000 -0.078236 0.062282
vn 0.000000 -0.005934 0.099824
vn 0.028430 -0.009487 0.095403
vn 0.000000 -0.017893 0.098386
vn 0.016508 -0.027155 0.094816
vn 0.014870 -0.033879 0.092904
vn 0.028115 -0.030080 0.091130
vn 0.025324 -0.036513 0.089585
vn 0.038474 -0.034448 0.085634
vn 0.034655 -0.040446 0.084635
vn 0.053716 -0.046717 0.070229
vn 0.048384 -0.051497 0.070760
vn 0.056286 -0.050554 0.065393
vn 0.050701 -0.054953 0.066404
vn 0.048646 -0.068355 0.054416
vn 0.044966 -0.056744 0.068979
vn 0.052557 -0.019483 0.082814
vn 0.068739 -0.034505 0.063908
vn 0.074403 -0.052274 0.041614
vn 0.034399 -0.046927 0.081330
vn 0.018617 -0.040361 0.089579
vn 0.000000 -0.038057 0.092475
vn -0.062455 0.061101 -0.048642
vn -0.084791 0.041477 -0.033019
vn -0.070031 0.040838 -0.058549
vn -0.078336 0.021316 -0.058387
vn -0.064257 0.032018 -0.069613
vn -0.060008 0.004175 -0.079885
vn -0.055670 0.024149 -0.079484
vn -0.044611 0.017614 -0.087747
vn -0.044167 0.033593 -0.083191
vn -0.023909 0.025135 -0.093790
vn -0.031629 0.012579 -0.094028
vn -0.024007 0.010599 -0.096495
vn -0.032484 -0.007323 -0.094293
vn -0.000000 0.000002 -0.100000
vn -0.000000 -0.011333 -0.099356
vn -0.000000 0.022203 -0.097504
vn -0.057703 0.046213 -0.067340
vn -0.000000 0.078236 -0.062282
vn -0.000000 0.078236 -0.062282
vn -0.000000 0.078236 -0.062282
vn -0.000000 0.078236 -0.062282
vn -0.100000 -0.000000 -0.000000
vn -0.100000 -0.000000 -0.000000
vn -0.100000 -0.000000 -0.000000
vn -0.100000 -0.000000 -0.000000
vn -0.038230 0.057551 0.072293
vn -0.050000 0.053938 0.067754
vn -0.070654 0.044075 0.055365
vn -0.086603 0.031141 0.039118
vn -0.092379 0.023848 0.029956
vn -0.100000 -0.000000 -0.000000
vn -0.086603 0.031141 0.039118
vn -0.086603 0.031141 0.039118
vn -0.050000 0.053938 0.067754
vn -0.070769 0.044004 0.055276
vn -0.038292 0.057535 0.072273
vn -0.050000 0.053938 0.067754
vn -0.092404 0.023810 0.029909
vn -0.100000 -0.000000 -0.000000
vn 0.000000 -0.062282 -0.078236
vn 0.000000 -0.062282 -0.078236
vn 0.100000 0.000000 0.000000
vn 0.100000 0.000000 0.000000
vn 0.000000 0.000000 -0.100000
vn 0.000000 0.000000 -0.100000
vn 0.000000 0.000000 -0.100000
vn 0.000000 0.000000 -0.100000
vn 0.000000 0.000000 -0.100000
vn 0.000000 0.000000 -0.100000
vn 0.038275 0.085971 0.033824
vn 0.000000 0.093057 0.036612
vn 0.038272 0.085972 0.033825
vn 0.000000 0.093057 0.036612
vn 0.022242 0.090726 0.035695
vn 0.043368 0.083850 0.032990
vn 0.062338 0.072763 0.028628
vn 0.070713 0.065799 0.025888
vn 0.078177 0.058027 0.022830
vn 0.092392 0.035602 0.014008
vn 0.094386 0.030742 0.012095
vn 0.092396 0.035594 0.014004
vn 0.070716 0.065796 0.025887
vn -0.000000 -0.093057 -0.036612
vn -0.000000 -0.093057 -0.036612
vn -0.000000 -0.093057 -0.036612
vn -0.000000 -0.093057 -0.036612
vn 0.000000 0.036612 -0.093057
vn 0.000000 0.036612 -0.093057
vn 0.000000 0.036612 -0.093057
vn 0.000000 0.036612 -0.093057
vn -0.000000 -0.008944 -0.099599
vn 0.017167 -0.005779 -0.098346
vn -0.000000 0.000001 -0.100000
vn 0.008167 0.006231 -0.099471
vn 0.007098 0.010436 -0.099200
vn 0.018301 0.010690 -0.097728
vn 0.015903 0.014313 -0.097684
vn 0.026179 0.018110 -0.094798
vn 0.022749 0.020760 -0.095139
vn 0.028682 0.022226 -0.093184
vn 0.024924 0.024337 -0.093737
vn 0.030920 0.028327 -0.090783
vn 0.026867 0.029636 -0.091651
vn 0.024297 0.035515 -0.090268
vn 0.022449 0.026862 -0.093672
vn 0.031698 0.003298 -0.094786
vn 0.041365 0.016818 -0.089477
vn 0.044789 0.032735 -0.083201
vn 0.017183 0.019527 -0.096558
vn 0.009303 0.014612 -0.098488
vn 0.000000 0.012906 -0.099164
vn -0.012475 -0.036326 0.092330
vn -0.024387 -0.035507 0.090247
vn -0.015988 -0.032158 0.093329
vn -0.022535 -0.026806 0.093668
vn -0.013488 -0.027228 0.095272
vn -0.017224 -0.019447 0.096567
vn -0.009320 -0.023392 0.096778
vn -0.009316 -0.014553 0.098496
vn -0.007022 -0.022182 0.097256
vn -0.003596 -0.021092 0.097684
vn -0.004121 -0.025369 0.096641
vn -0.000000 -0.024718 0.096897
vn 0.000000 -0.017890 0.098387
vn -0.000000 -0.012813 0.099176
vn -0.007783 -0.027244 0.095902
vn -0.009750 -0.029091 0.095177
vn -0.011244 -0.031288 0.094311
vn -0.012172 -0.033740 0.093346
vn 0.000000 -0.036612 0.093057
vn 0.000000 -0.036612 0.093057
vn 0.000000 -0.036612 0.093057
vn 0.000000 -0.036612 0.093057
vn -0.100000 0.000000 -0.000000
vn -0.100000 0.000000 -0.000000
vn -0.100000 0.000000 -0.000000
vn -0.100000 0.000000 -0.000000
vn -0.038303 -0.085960 -0.033820
vn -0.050000 -0.080589 -0.031707
vn -0.070775 -0.065741 -0.025865
vn -0.086603 -0.046528 -0.018306
vn -0.092402 -0.035579 -0.013998
vn -0.100000 -0.000000 -0.000000
vn -0.086603 -0.046528 -0.018306
vn -0.092375 -0.035640 -0.014022
vn -0.070648 -0.065859 -0.025912
vn -0.050000 -0.080589 -0.031707
vn -0.038227 -0.085989 -0.033832
vn -0.100000 0.000000 0.000000
vn 0.000000 0.093057 0.036612
vn 0.000000 0.093057 0.036612
vn 0.000000 -0.017888 0.098387
vn 0.000000 -0.017888 0.098387
vn 0.000000 -0.017888 0.098387
vn 0.000000 -0.017888 0.098387
vn 0.000000 -0.017888 0.098387
vn 0.000000 -0.017888 0.098387
usemtl Aluminium
f 10/1/1 1/2/2 11/3/3
f 11/3/3 1/2/2 2/4/4
f 11/3/3 2/4/4 3/5/5
f 11/3/3 3/5/5 12/6/6
f 12/6/6 3/5/5 4/7/7
f 12/6/6 4/7/7 13/8/8
f 13/8/8 4/7/7 5/9/9
f 13/8/8 5/9/9 6/10/10
f 6/10/10 7/11/11 13/8/8
f 13/8/8 7/11/11 8/12/12
f 13/8/8 8/12/12 12/6/6
f 12/6/6 8/12/12 9/13/13
f 12/6/6 9/13/13 11/3/3
f 11/3/3 9/13/13 10/1/1
f 14/14/14 15/15/15 17/16/16
f 17/16/16 15/15/15 16/17/17
f 14/18/18 17/19/19 1/20/20
f 1/20/20 17/19/19 18/21/21
f 19/22/22 20/23/23 23/24/24
f 23/24/24 20/23/23 29/25/25
f 23/24/24 29/25/25 24/26/26
f 24/26/26 29/25/25 28/27/27
f 24/26/26 28/27/27 30/28/28
f 30/28/28 28/27/27 27/29/29
f 30/28/28 27/29/29 31/30/30
f 31/30/30 27/29/29 26/31/31
f 31/30/30 26/31/31 32/32/32
f 32/32/32 26/31/31 25/33/33
f 32/32/32 25/33/33 33/34/34
f 33/34/34 25/33/33 1/35/35
f 33/34/34 1/35/35 10/36/36
f 29/25/25 20/23/23 28/27/27
f 28/27/27 20/23/23 21/37/37
f 28/27/27 21/37/37 27/29/29
f 27/29/29 21/37/37 26/31/31
f 21/37/37 22/38/38 26/31/31
f 26/31/31 22/38/38 25/33/33
f 22/38/38 14/39/39 25/33/33
f 25/33/33 14/39/39 1/35/35
f 33/34/34 10/36/36 32/32/32
f 32/32/32 10/36/36 9/40/40
f 32/32/32 9/40/40 31/30/30
f 31/30/30 9/40/40 30/28/28
f 9/40/40 8/41/41 30/28/28
f 30/28/28 8/41/41 24/26/26
f 8/41/41 7/42/42 24/26/26
f 24/26/26 7/42/42 23/24/24
f 2/43/43 15/44/44 44/45/45
f 44/45/45 15/44/44 34/46/46
f 44/45/45 34/46/46 43/47/47
f 43/47/47 34/46/46 35/48/48
f 43/47/47 35/48/48 42/49/49
f 42/49/49 35/48/48 41/50/50
f 42/49/49 41/50/50 4/51/51
f 4/51/51 41/50/50 5/52/52
f 5/52/52 41/50/50 40/53/53
f 5/52/52 40/53/53 39/54/54
f 39/54/54 40/53/53 36/55/55
f 39/54/54 36/55/55 38/56/56
f 38/56/56 36/55/55 37/57/57
f 35/48/48 36/55/55 41/50/50
f 41/50/50 36/55/55 40/53/53
f 38/56/56 6/58/58 39/54/54
f 39/54/54 6/58/58 5/52/52
f 42/49/49 4/51/51 43/47/47
f 43/47/47 4/51/51 3/59/59
f 43/47/47 3/59/59 44/45/45
f 44/45/45 3/59/59 2/43/43
f 16/60/60 15/61/61 45/62/62
f 45/62/62 15/61/61 2/63/63
f 17/64/64 16/65/65 18/66/66
f 18/66/66 16/65/65 45/67/67
f 15/68/15 14/69/14 34/70/68
f 34/70/68 14/69/14 48/71/69
f 34/70/68 48/71/69 35/72/70
f 35/72/70 48/71/69 51/73/71
f 35/72/70 51/73/71 36/74/72
f 36/74/72 51/73/71 37/75/73
f 37/75/73 51/73/71 50/76/74
f 37/75/73 50/76/74 49/77/75
f 49/77/75 50/76/74 46/78/76
f 49/77/75 46/78/76 21/79/77
f 21/79/77 46/78/76 22/80/78
f 22/80/78 46/78/76 14/69/14
f 14/69/14 46/78/76 47/81/79
f 14/69/14 47/81/79 48/71/69
f 48/71/69 47/81/79 51/73/71
f 21/79/77 20/82/80 49/77/75
f 49/77/75 20/82/80 37/75/73
f 20/82/80 19/83/81 37/75/73
f 51/73/71 47/81/79 50/76/74
f 50/76/74 47/81/79 46/78/76
f 1/84/2 18/85/82 2/86/4
f 2/86/4 18/85/82 45/87/83
f 7/88/11 6/89/10 53/90/84
f 53/90/84 6/89/10 52/91/85
f 52/92/86 6/93/87 55/94/88
f 55/94/88 6/93/87 38/95/89
f 55/94/88 38/95/89 54/96/90
f 54/96/90 38/95/89 37/97/91
f 65/98/92 56/99/93 66/100/94
f 66/100/94 56/99/93 57/101/95
f 66/100/94 57/101/95 58/102/96
f 58/102/96 59/103/97 66/100/94
f 66/100/94 59/103/97 60/104/98
f 66/100/94 60/104/98 67/105/99
f 67/105/99 60/104/98 61/106/100
f 67/105/99 61/106/100 68/107/101
f 68/107/101 61/106/100 62/108/102
f 68/107/101 62/108/102 52/109/85
f 52/109/85 62/108/102 53/110/84
f 52/109/85 63/111/103 68/107/101
f 68/107/101 63/111/103 67/105/99
f 63/111/103 64/112/104 67/105/99
f 67/105/99 64/112/104 66/100/94
f 64/112/104 65/98/92 66/100/94
f 70/113/105 71/114/106 69/115/107
f 69/115/107 71/114/106 72/116/108
f 69/117/109 72/118/110 56/119/111
f 56/119/111 72/118/110 73/120/112
f 54/121/113 74/122/114 55/123/115
f 55/123/115 74/122/114 82/124/116
f 55/123/115 82/124/116 77/125/117
f 77/125/117 82/124/116 81/126/118
f 77/125/117 81/126/118 83/127/119
f 83/127/119 81/126/118 80/128/120
f 83/127/119 80/128/120 84/129/121
f 84/129/121 80/128/120 79/130/122
f 84/129/121 79/130/122 85/131/123
f 85/131/123 79/130/122 78/132/124
f 85/131/123 78/132/124 86/133/125
f 86/133/125 78/132/124 56/134/126
f 86/133/125 56/134/126 65/135/127
f 82/124/116 74/122/114 81/126/118
f 81/126/118 74/122/114 75/136/128
f 81/126/118 75/136/128 80/128/120
f 80/128/120 75/136/128 76/137/129
f 80/128/120 76/137/129 79/130/122
f 79/130/122 76/137/129 78/132/124
f 76/137/129 69/138/130 78/132/124
f 78/132/124 69/138/130 56/134/126
f 64/139/131 84/129/121 65/135/127
f 65/135/127 84/129/121 85/131/123
f 65/135/127 85/131/123 86/133/125
f 84/129/121 64/139/131 83/127/119
f 83/127/119 64/139/131 63/140/132
f 83/127/119 63/140/132 77/125/117
f 77/125/117 63/140/132 52/141/133
f 77/125/117 52/141/133 55/123/115
f 57/142/134 70/143/135 96/144/136
f 96/144/136 70/143/135 87/145/137
f 96/144/136 87/145/137 95/146/138
f 95/146/138 87/145/137 88/147/139
f 95/146/138 88/147/139 94/148/140
f 94/148/140 88/147/139 89/149/141
f 94/148/140 89/149/141 93/150/142
f 93/150/142 89/149/141 92/151/143
f 93/150/142 92/151/143 62/152/144
f 62/152/144 92/151/143 53/153/145
f 53/153/145 92/151/143 91/154/146
f 91/154/146 92/151/143 89/149/141
f 91/154/146 89/149/141 90/155/147
f 62/152/144 61/156/148 93/150/142
f 93/150/142 61/156/148 94/148/140
f 94/148/140 61/156/148 95/146/138
f 95/146/138 61/156/148 60/157/149
f 95/146/138 60/157/149 59/158/150
f 95/146/138 59/158/150 96/144/136
f 96/144/136 59/158/150 58/159/151
f 96/144/136 58/159/151 57/142/134
f 71/160/152 70/161/153 97/162/154
f 97/162/154 70/161/153 57/163/155
f 72/164/156 71/165/157 73/166/158
f 73/166/158 71/165/157 97/167/159
f 70/168/105 69/169/107 87/170/160
f 87/170/160 69/169/107 99/171/161
f 87/170/160 99/171/161 88/172/162
f 88/172/162 99/171/161 101/173/163
f 88/172/162 101/173/163 89/174/164
f 89/174/164 101/173/163 90/175/165
f 90/175/165 101/173/163 100/176/166
f 90/175/165 100/176/166 74/177/167
f 74/177/167 100/176/166 75/178/168
f 75/178/168 100/176/166 98/179/169
f 75/178/168 98/179/169 76/180/170
f 76/180/170 98/179/169 69/169/107
f 69/169/107 98/179/169 99/171/161
f 74/177/167 54/181/171 90/175/165
f 101/173/163 99/171/161 98/179/169
f 100/176/166 101/173/163 98/179/169
f 57/182/95 56/183/93 97/184/172
f 97/184/172 56/183/93 73/185/173
f 19/186/81 90/187/165 37/188/73
f 37/188/73 90/187/165 54/189/171
f 90/190/174 19/191/175 91/192/176
f 91/192/176 19/191/175 23/193/177
f 91/192/176 23/193/177 53/194/178
f 53/194/178 23/193/177 7/195/179
# 101 vertices
# 195 texture params
# 179 normals
# 198 facets

# 1 groups
